<svg version="1.1" id="Layer_1" xmlns="http://www.w3.org/2000/svg" xmlns:xlink="http://www.w3.org/1999/xlink" x="0px" y="0px" viewBox="0 0 157.3 36.8" style="enable-background:new 0 0 157.3 36.8;" xml:space="preserve">
 <style type="text/css">
  .st0{fill:#EC1C24;}
	.st1{fill:#6D6E70;}
 </style>
 <g>
  <polygon class="st0" points="36.3,12.1 24.2,12.1 24.2,0 12.1,0 12.1,12.1 0,12.1 0,24.2 12.1,24.2 12.1,36.3 24.2,36.3 24.2,24.2 
		36.3,24.2 	">
  </polygon>
  <g>
   <path class="st1" d="M60.5,15.6h5C65.3,15.2,59.7,0.2,59.6,0h-5.3c-0.1,0.2-5.8,15.2-6,15.6h5c0.1-0.2,0.7-2.3,0.7-2.3h5.7
			C59.8,13.3,60.4,15.4,60.5,15.6 M55.1,9.9l1.9-6l1.8,6H55.1z">
   </path>
   <path class="st1" d="M74.3,8.7c0,0.2,0.1,0.5,0.1,0.7v6.2h4.2V9.5c0-0.2,0-0.7,0.2-1.2c0.3-0.5,0.7-0.8,1.5-0.8
			c1.7,0,1.7,1.4,1.7,2.1v6h4.2c0-0.3,0-7.4,0-7.4v0c0-1.1,0-2.3-1-3.2c-0.7-0.7-1.8-1.1-3.1-1.1c-2.7,0-3.5,1.4-3.7,1.9l-0.1,0.3
			l-0.1-0.3c-0.3-0.6-0.7-1.2-2.1-1.7c-0.7-0.2-1.3-0.3-1.7-0.3c-2.4,0-3,1.1-3.3,1.7l-0.3,0.5V4.2h-4v11.4h4.2V9.4l0-0.1
			c0-0.4,0-0.9,0.5-1.3c0.3-0.3,0.7-0.5,1.3-0.5C73.3,7.5,74.1,7.8,74.3,8.7">
   </path>
   <path class="st1" d="M96.6,11.4c-0.5,1.1-1.3,1.6-2.2,1.6c-0.4,0-1-0.1-1.5-0.6c-0.5-0.5-0.6-1.1-0.6-1.6l0-0.2h8
			c0-1.7-0.1-3.5-1.7-5.1c-1.4-1.4-3.2-1.8-4.5-1.8c-3.7,0-6.1,2.6-6.1,6.1c0,1.6,0.5,3.1,1.5,4.2c1.1,1.2,2.7,2,4.6,2
			c2.6,0,4.6-1.2,5.9-3.2C99.7,12.7,96.8,11.5,96.6,11.4 M92.4,8.2c0.1-0.5,0.4-1.7,1.9-1.7c0.7,0,1.5,0.4,1.7,1.3
			c0,0.1,0,0.2,0.1,0.3l0,0.3h-3.7L92.4,8.2z">
   </path>
   <path class="st1" d="M106,4.1h-4.1v11.5h4.2v-5.4v0c0-0.7,0.1-2.6,2.9-2.6c0.3,0,0.7,0,0.9,0V3.9c-1.6,0-2.5,0.3-3.7,1.4L106,5.5
			V4.1z">
   </path>
   <path class="st1" d="M111.5,0h4.5v3h-4.5V0z M111.5,4.2h4.5v11.4h-4.5V4.2z">
   </path>
   <path class="st1" d="M128.3,14.1c0.5-0.5,0.8-1.1,1.1-1.6c-0.2-0.1-3-1.6-3.3-1.8c-0.2,0.8-0.8,2-2.2,2c-1,0-2.1-0.5-2.1-2.8
			c0-2,0.9-3.2,2.2-3.2c1,0,1.7,0.6,2,1.8c0.3-0.2,3-1.7,3.3-1.9c-0.2-0.4-0.5-0.8-0.9-1.1c-1.7-1.7-3.9-1.9-4.6-1.9
			c-2,0-3.5,0.7-4.6,1.8c-1,1-1.6,2.7-1.6,4.4c0,3.7,2.3,6.2,5.9,6.2C126.1,16,127.6,14.8,128.3,14.1">
   </path>
   <path class="st1" d="M134.6,15.9c2.1,0,3.1-0.7,3.7-1.1l0.3-0.2v1h4c-0.2-0.4-0.3-0.6-0.3-1.3V7.9c0-0.7,0-1.7-0.6-2.5
			c-0.8-1-2.3-1.7-4.6-1.7c-1.7,0-3.1,0.3-4,0.8c-1.5,0.8-1.8,2-2,3c0.3,0,3.7-0.1,4-0.1c0.2-0.9,0.6-1.2,1.6-1.2
			c1.4,0,1.7,0.6,1.7,1.5l0,0.1l-0.1,0c-0.7,0.2-1.2,0.3-2.5,0.5c-1.9,0.3-3.2,0.4-4.2,1.5c-0.6,0.6-0.9,1.4-0.9,2.3
			C130.6,13.9,131.7,15.9,134.6,15.9 M135.6,11L135.6,11L135.6,11c0.4-0.1,0.7-0.2,1.1-0.3c0,0,0.1,0,0.1,0c0.4-0.1,0.9-0.3,1.3-0.4
			l0.3-0.1v0.2c0,0.4,0,0.8-0.2,1.3c-0.4,1-1.6,1.3-2.2,1.3c-0.9,0-1.3-0.5-1.3-0.9C134.5,12,134.6,11.4,135.6,11">
   </path>
   <path class="st1" d="M152.2,9.3v6.3h4.2V8.4c0-0.6,0-2.4-1.1-3.5c-0.7-0.7-1.7-1-2.9-1c-2.4,0-3.1,1.2-3.5,1.7L148.6,6V4.2h-4
			v11.5h4.2V9.5c0-0.5,0-2,1.7-2C152.3,7.5,152.2,8.8,152.2,9.3">
   </path>
   <path class="st1" d="M59.1,30l0.3-0.1c0.7-0.3,1.3-0.5,1.9-1.1c0.8-0.8,1.1-1.9,1.1-3.1c0-1.6-0.7-3.6-2.6-4.5
			c-1-0.4-2.6-0.5-3.8-0.5h-7.6v15.6H53v-5.6h1.7c0,0,3,5.5,3.1,5.6H63c-0.3-0.4-3.7-6.2-3.7-6.2L59.1,30z M55.2,27.6H53v-3.8h2.2
			c0.8,0,2.6,0,2.6,1.9C57.8,27.6,55.9,27.6,55.2,27.6">
   </path>
   <path class="st1" d="M76.6,30.3c0,3.7,2,6.3,5,6.3c0.6,0,1.2-0.1,1.7-0.3c0.6-0.2,0.8-0.5,1.1-0.8l0.3-0.3v1.1h4.1V20.7h-4.2v4.8
			v0.3l-0.3-0.3c-0.5-0.4-1.2-1-2.8-1C79.1,24.5,76.6,26.4,76.6,30.3 M82.7,27.6c0.6,0,1.4,0.4,1.7,1.4c0.2,0.5,0.2,0.9,0.2,1.5
			c0,0.6,0,1.7-0.6,2.4c-0.4,0.4-0.8,0.6-1.3,0.6c-0.5,0-0.9-0.2-1.3-0.5c-0.5-0.5-0.7-1.3-0.7-2.4c0-0.5,0-1,0.1-1.4v0l0,0
			C81.3,27.8,82.4,27.6,82.7,27.6">
   </path>
   <path class="st1" d="M71.7,32.1c-0.5,1.1-1.2,1.6-2.2,1.6c-0.4,0-1-0.1-1.5-0.6c-0.5-0.5-0.6-1.1-0.6-1.6l0-0.2h8
			c0-1.7-0.1-3.5-1.7-5.1c-1.4-1.4-3.2-1.8-4.5-1.8c-3.7,0-6.1,2.6-6.1,6.1c0,1.6,0.5,3.1,1.5,4.2c1.1,1.2,2.7,2,4.6,2
			c2.6,0,4.6-1.2,5.9-3.2C74.9,33.5,72,32.2,71.7,32.1 M67.5,28.9c0.1-0.5,0.4-1.7,1.9-1.7c0.7,0,1.5,0.4,1.7,1.3
			c0,0.1,0,0.2,0.1,0.3l0,0.3h-3.7L67.5,28.9z">
   </path>
   <path class="st1" d="M100.2,31.5c-0.5-0.8-0.8-1.9-0.8-3.2c0-0.6,0-2.4,1.2-3.6c0.3-0.3,1.1-0.9,2.2-0.9c2.1,0,3,1.8,3.4,2.7
			c0.3-0.1,3.6-1.8,3.9-1.9c-0.3-0.6-0.7-1.3-1.3-1.9c-1.5-1.6-3.7-2.5-6.1-2.5c-2.4,0-4.4,0.9-5.9,2.6c-1.3,1.5-2,3.7-2,5.8
			c0,2.1,0.7,4.2,1.9,5.6c1.4,1.7,3.5,2.6,6,2.6c2.4,0,4.5-0.8,5.9-2.3c0.7-0.7,1.2-1.6,1.5-2.3c-0.3-0.1-3.7-1.8-4-1.9
			c-0.8,2.1-2.2,2.6-3.3,2.6C101.8,33,100.8,32.5,100.2,31.5">
   </path>
   <path class="st1" d="M131.5,26c-0.5-0.5-2-1.6-4.7-1.6c-2.1,0-3.8,0.6-4.9,1.8c-1.1,1.1-1.7,2.7-1.7,4.5c0,1.6,0.5,3.2,1.5,4.2
			c1.1,1.2,2.8,1.9,4.9,1.9c2,0,3.8-0.6,4.9-1.7c1.1-1.1,1.7-2.7,1.7-4.4C133.2,28.9,132.6,27.1,131.5,26 M126.7,33.7
			c-2,0-2.3-2-2.3-3.2c0-1.1,0.3-3.1,2.2-3.1c0.6,0,1.1,0.2,1.5,0.5c0.5,0.5,0.8,1.4,0.8,2.5C128.9,33.2,127.7,33.7,126.7,33.7">
   </path>
   <path class="st1" d="M143.6,29.6c-0.5-0.3-1-0.4-3-0.8l-0.1,0c-1.5-0.4-1.9-0.4-1.9-0.9c0-0.3,0.1-0.8,1.1-0.8
			c1.2,0,2.3,0.7,3.1,1.1c0.2-0.1,2-1.9,2.3-2.1c-0.6-0.4-1.4-1.1-2.8-1.4c-0.9-0.2-1.7-0.3-2.5-0.3c-1.7,0-3,0.5-3.9,1.3
			c-0.7,0.7-1.1,1.7-1.1,2.6c0,2.3,2,3,3,3.3c1,0.3,2,0.5,2.4,0.5c0.4,0.1,1.3,0.2,1.3,0.8c0,0.6-0.7,0.9-1.3,0.9
			c-0.6,0-1.2-0.1-1.9-0.4c-0.8-0.4-1.4-0.8-1.8-1.2c-0.2,0.2-2.1,1.9-2.3,2.2c0.9,0.8,2.8,2.3,6,2.3c3.6,0,5.3-2.1,5.3-4.2
			C145.3,31.3,144.7,30.2,143.6,29.6">
   </path>
   <path class="st1" d="M155.6,29.6c-0.5-0.3-1-0.4-3-0.8l-0.1,0c-1.5-0.4-1.9-0.4-1.9-0.9c0-0.3,0.1-0.8,1.1-0.8
			c1.2,0,2.3,0.7,3,1.1c0.2-0.1,2-1.9,2.3-2.1c-0.6-0.4-1.4-1.1-2.8-1.4c-0.9-0.2-1.7-0.3-2.6-0.3c-1.7,0-3,0.5-3.9,1.3
			c-0.7,0.7-1.1,1.7-1.1,2.6c0,2.3,2,3,3,3.3c1,0.3,2,0.5,2.4,0.5c0.4,0.1,1.3,0.2,1.3,0.8c0,0.6-0.7,0.9-1.3,0.9
			c-0.6,0-1.2-0.1-1.9-0.4c-0.8-0.4-1.4-0.8-1.8-1.2c-0.2,0.2-2.1,1.9-2.3,2.2c0.9,0.8,2.8,2.3,6,2.3c3.6,0,5.3-2.1,5.3-4.2
			C157.3,31.3,156.7,30.2,155.6,29.6">
   </path>
   <path class="st1" d="M115.4,24.8h-4.1v11.5h4.2v-5.4v0c0-0.7,0.1-2.6,2.9-2.6c0.3,0,0.7,0,0.9,0v-3.7c-1.6,0-2.5,0.3-3.7,1.4
			l-0.3,0.2V24.8z">
   </path>
  </g>
 </g>
</svg>